<?xml version="1.0" encoding="UTF-8"?>
<svg id="Layer_1" data-name="Layer 1" xmlns="http://www.w3.org/2000/svg" viewBox="0 0 400 400">
  <path d="M388,12v376H12V12h376M388,0H12C5.37,0,0,5.37,0,12v376c0,6.63,5.37,12,12,12h376c6.63,0,12-5.37,12-12V12c0-6.63-5.37-12-12-12h0Z"/>
  <g>
    <path d="M111.33,91.81c.1-3.26,3.17-5.95,6.72-5.95s6.72,2.59,6.72,5.95v58.27c0,3.36-3.07,5.95-6.72,5.95s-6.62-2.69-6.72-5.95v-.86c-2.88,4.7-8.35,7.2-13.44,7.2-11.42,0-21.79-8.45-21.79-23.33s10.37-23.23,21.79-23.23c2.88,0,9.6,1.25,13.44,7.2v-25.25ZM100.49,144.51c6.05,0,10.94-5.38,10.94-11.33s-4.9-11.33-10.94-11.33c-6.72,0-10.56,5.38-10.56,11.33s3.84,11.33,10.56,11.33Z"/>
    <path d="M217.25,152.38c-4.51,2.98-10.18,4.03-15.46,4.03-12.86,0-23.42-9.31-23.42-23.42s10.56-23.13,23.42-23.13,22.94,9.41,22.94,23.52c0,2.4-2.02,4.13-4.13,4.13h-28.89c.67,5.18,6.34,7.39,11.04,7.39,2.69,0,4.99-.19,7.78-2.11,3.07-2.11,6.53-1.54,8.45.67,2.5,2.88,1.54,7.01-1.73,8.93ZM211.3,129.15c-.67-5.47-4.42-8.16-9.41-8.16s-8.83,2.5-9.98,8.16h19.39Z"/>
    <path d="M284.44,140.19c2.98-1.34,5.76-.1,7.2,1.63,2.4,2.59,5.28,3.94,8.45,3.94,2.98,0,5.76-.48,5.76-2.78,0-1.92-1.15-2.59-4.42-3.65l-5.09-1.82c-13.44-4.51-13.34-10.85-13.34-14.97,0-6.62,7.97-12.77,17.38-12.77,6.43,0,13.05,2.02,16.13,7.39,1.63,2.88.86,5.66-1.15,6.82-2.98,1.73-5.76,1.06-8.54-1.06-1.92-1.44-3.65-2.02-5.38-2.02-2.88,0-4.9.96-4.9,2.69,0,1.44,1.15,2.3,3.84,3.17l6.82,2.3c10.85,3.55,12.19,10.56,12.19,13.44,0,9.5-9.98,14.02-19.39,14.02-7.2,0-15.65-2.98-17.95-9.6-.96-2.78.19-5.76,2.4-6.72Z"/>
    <path d="M101.59,231.31c4.51,0,8.16,3.36,8.16,7.78s-3.65,7.87-8.16,7.87-8.35-3.46-8.35-7.87,3.84-7.78,8.35-7.78ZM108.31,295.05c0,3.36-3.07,5.95-6.72,5.95s-6.62-2.69-6.72-5.95v-33.89c.1-3.26,3.17-5.95,6.72-5.95s6.72,2.59,6.72,5.95v33.89Z"/>
    <path d="M180.63,305.7c2.4-2.21,6.43-1.73,8.26.29,2.5,2.69,6.34,4.9,9.98,4.9,10.18,0,12.96-7.01,12.38-15.93v-1.25c-2.88,5.09-8.35,7.68-13.92,7.68-11.42,0-21.79-8.45-21.79-23.33s10.37-23.23,21.79-23.23c2.88,0,9.6,1.25,13.44,7.2v-.86c.1-3.26,3.17-5.95,6.72-5.95s6.72,2.59,6.72,5.95v33.12c0,19.29-9.41,28.61-25.34,28.61-7.78,0-14.59-3.46-19.01-8.93-1.82-2.3-1.63-6.14.77-8.26ZM199.93,289.48c6.05,0,10.94-5.38,10.94-11.33s-4.9-11.33-10.94-11.33c-6.72,0-10.56,5.38-10.56,11.33s3.84,11.33,10.56,11.33Z"/>
    <path d="M292.6,262.22c2.4-4.51,7.68-7.49,12.96-7.49,10.08,0,16.51,6.24,16.51,19.01v21.31c0,3.36-3.07,5.95-6.72,5.95s-6.62-2.69-6.72-5.95v-18.43c0-5.95-3.26-8.93-7.78-8.93s-8.25,2.3-8.25,9.12v18.24c0,3.36-3.07,5.95-6.72,5.95s-6.62-2.69-6.72-5.95v-33.88c.1-3.26,3.17-5.95,6.72-5.95s6.72,2.59,6.72,5.95v1.06Z"/>
  </g>
</svg>