<svg width="400" height="400" viewBox="0 0 400 400" fill="none" xmlns="http://www.w3.org/2000/svg">
<rect x="6" y="6" width="388" height="388" stroke="black" stroke-width="12"/>
<path d="M103.719 166.562C103.344 166.562 103.156 166.031 103.156 164.969V163.844C103.156 163.531 103.031 163.406 102.781 163.469C99.3438 165.406 96.0312 166.375 92.8438 166.375C89.4062 166.375 86.2812 165.531 83.4688 163.844C80.7188 162.094 78.5312 159.812 76.9062 157C75.3438 154.125 74.5625 151 74.5625 147.625C74.5625 144.625 75.125 141.75 76.25 139C77.4375 136.25 79 133.812 80.9375 131.688C82.9375 129.5 85.1875 127.812 87.6875 126.625C90.1875 125.375 92.7812 124.75 95.4688 124.75C98.1562 124.75 100.5 125.281 102.5 126.344C102.938 126.344 103.156 125.781 103.156 124.656V114.531C103.156 112.406 102.969 110.406 102.594 108.531C102.344 107.531 100.75 107.031 97.8125 107.031H96.9688C96.5938 107.031 96.4062 106.688 96.4062 106C96.4062 105 96.5938 104.5 96.9688 104.5C100.469 104.188 103.219 103.719 105.219 103.094C107.281 102.469 108.75 101.844 109.625 101.219L110 100.938H110.188C110.438 100.938 110.688 101.125 110.938 101.5C111.188 101.812 111.344 102.125 111.406 102.438C110.719 104.5 110.375 107.219 110.375 110.594V152.781C110.375 155.719 110.562 158.094 110.938 159.906C111.125 160.531 111.656 160.938 112.531 161.125C113.469 161.25 114.438 161.375 115.438 161.5L116.281 161.594C116.469 161.656 116.562 162.031 116.562 162.719C116.562 163.656 116.375 164.125 116 164.125C113.938 164.25 111.812 164.594 109.625 165.156C107.438 165.656 105.75 166.062 104.562 166.375L103.719 166.562ZM96.4062 161.781C98.5312 161.781 100.188 161.312 101.375 160.375C102.562 159.375 103.156 158.062 103.156 156.438V134.125C103.156 132.812 102.438 131.594 101 130.469C99.625 129.281 97.375 128.688 94.25 128.688C91.875 128.688 89.8125 129.438 88.0625 130.938C86.3125 132.438 84.9688 134.438 84.0312 136.938C83.0938 139.375 82.625 142.031 82.625 144.906C82.625 147.906 83.1562 150.688 84.2188 153.25C85.3438 155.812 86.9375 157.875 89 159.438C91.0625 161 93.5312 161.781 96.4062 161.781Z" fill="black"/>
<path d="M303.406 167.031C301.469 167.031 299.719 166.812 298.156 166.375C296.594 165.938 294.688 165.562 292.438 165.25C292.188 164.562 291.938 163.625 291.688 162.438C291.438 161.25 291.219 160 291.031 158.688C290.906 157.375 290.844 156.312 290.844 155.5C291.344 155.125 291.719 154.938 291.969 154.938C292.906 154.938 293.406 155.125 293.469 155.5C293.719 156.75 294.344 158 295.344 159.25C296.344 160.5 297.562 161.562 299 162.438C300.438 163.25 301.906 163.656 303.406 163.656C305.406 163.656 307.031 163.125 308.281 162.062C309.594 160.938 310.25 159.344 310.25 157.281C310.25 155.094 309.406 153.281 307.719 151.844C306.406 150.781 305.281 150.031 304.344 149.594C303.469 149.094 302.594 148.656 301.719 148.281C300.906 147.844 299.875 147.25 298.625 146.5C293.75 143.688 291.312 140.344 291.312 136.469C291.312 134.219 291.938 132.25 293.188 130.562C294.438 128.812 296.094 127.469 298.156 126.531C300.281 125.531 302.531 125.031 304.906 125.031C305.594 125.031 306.375 125.094 307.25 125.219C308.125 125.281 309.094 125.375 310.156 125.5C311.219 125.688 312.094 125.844 312.781 125.969C313.469 126.094 314.031 126.188 314.469 126.25C315.156 129.125 315.531 132.312 315.594 135.812C315.594 136.125 315.188 136.281 314.375 136.281C313.5 136.281 313.031 136.062 312.969 135.625C312.656 133.875 311.75 132.219 310.25 130.656C308.812 129.094 307.156 128.312 305.281 128.312C300.781 128.312 298.531 130.156 298.531 133.844C298.531 134.781 298.625 135.625 298.812 136.375C299.062 137.062 299.594 137.719 300.406 138.344C302.344 139.844 304.625 141.344 307.25 142.844C309.938 144.344 312.156 145.75 313.906 147.062C316.531 149.062 317.844 151.406 317.844 154.094C317.844 156.531 317.188 158.75 315.875 160.75C314.562 162.688 312.812 164.219 310.625 165.344C308.438 166.469 306.031 167.031 303.406 167.031Z" fill="black"/>
<path d="M84.375 291.281C84.125 291.031 84 290.5 84 289.688C84 288.938 84.125 288.562 84.375 288.562C84.875 288.562 85.5625 288.469 86.4375 288.281C87.3125 288.094 88.125 287.844 88.875 287.531C89.625 287.219 90.0312 286.938 90.0938 286.688C90.3438 285.812 90.5 284.812 90.5625 283.688C90.6875 282.562 90.75 281.375 90.75 280.125V262.406C90.75 260.031 90.3125 258.344 89.4375 257.344C88.8125 256.531 88.0625 256.031 87.1875 255.844C86.3125 255.594 85.5625 255.469 84.9375 255.469C84.3125 255.406 84 255.312 84 255.188C84 253.688 84.1875 252.906 84.5625 252.844C87.875 252.344 90.4062 251.938 92.1562 251.625C93.9062 251.25 95.4688 250.906 96.8438 250.594L97.9688 250.312C98.2188 250.25 98.375 250.5 98.4375 251.062C98.5 251.625 98.5 252.031 98.4375 252.281C98.3125 253.531 98.1875 254.719 98.0625 255.844C98 256.969 97.9688 258.031 97.9688 259.031V278.344C97.9688 280.156 98.0312 281.75 98.1562 283.125C98.2812 284.5 98.4688 285.688 98.7188 286.688C98.8438 286.938 99.2812 287.219 100.031 287.531C100.781 287.844 101.594 288.094 102.469 288.281C103.344 288.469 103.969 288.562 104.344 288.562C104.531 288.562 104.656 288.938 104.719 289.688C104.781 290.438 104.75 290.969 104.625 291.281L94.5938 290.812L84.375 291.281ZM93.6562 240.094C92.4062 240.094 91.3125 239.625 90.375 238.688C89.4375 237.75 88.9688 236.656 88.9688 235.406C88.9688 234.094 89.4375 233 90.375 232.125C91.3125 231.188 92.4062 230.719 93.6562 230.719C94.9688 230.719 96.0625 231.188 96.9375 232.125C97.875 233 98.3438 234.094 98.3438 235.406C98.3438 236.656 97.875 237.75 96.9375 238.688C96.0625 239.625 94.9688 240.094 93.6562 240.094Z" fill="black"/>
<path d="M204.406 166.562C200.969 166.562 197.812 165.656 194.938 163.844C192.062 162.031 189.75 159.625 188 156.625C186.312 153.562 185.469 150.156 185.469 146.406C185.469 142.031 186.281 138.25 187.906 135.062C189.531 131.875 191.75 129.438 194.562 127.75C197.375 126 200.531 125.125 204.031 125.125C206.906 125.125 209.438 125.688 211.625 126.812C213.812 127.875 215.5 129.25 216.688 130.938C217.812 132.688 218.625 134.469 219.125 136.281C219.688 138.031 219.969 139.781 219.969 141.531C219.969 142.781 219.781 143.562 219.406 143.875C219.031 144.125 218.312 144.25 217.25 144.25H193.625C193.125 144.25 192.875 144.406 192.875 144.719C192.875 147.344 193.406 149.875 194.469 152.312C195.531 154.688 197.094 156.656 199.156 158.219C201.219 159.781 203.75 160.562 206.75 160.562C209.375 160.562 211.562 160.188 213.312 159.438C215.125 158.625 216.438 157.906 217.25 157.281L217.906 156.812C218.281 156.812 218.469 157.219 218.469 158.031C218.469 158.469 218.281 159.031 217.906 159.719C216.656 161.469 214.812 163.062 212.375 164.5C209.938 165.875 207.281 166.562 204.406 166.562ZM193.625 140.312H211.906C212.219 140.312 212.375 140 212.375 139.375C212.375 138 212 136.5 211.25 134.875C210.562 133.188 209.5 131.719 208.062 130.469C206.625 129.219 204.812 128.594 202.625 128.594C200.625 128.594 198.906 129.281 197.469 130.656C196.031 131.969 194.938 133.5 194.188 135.25C193.438 136.938 193.062 138.406 193.062 139.656C193.062 140.094 193.25 140.312 193.625 140.312Z" fill="black"/>
<path d="M199.969 312.281C197.031 312.281 194.219 311.906 191.531 311.156C188.906 310.406 186.781 309.25 185.156 307.688C183.531 306.125 182.719 304.188 182.719 301.875C182.719 298 185.781 294.688 191.906 291.938C190.219 291.688 188.656 290.906 187.219 289.594C185.781 288.281 185.062 286.688 185.062 284.812C185.062 283.188 185.75 281.5 187.125 279.75C188.562 278 190.156 276.562 191.906 275.438C190.656 274.938 189.438 274.094 188.25 272.906C187.125 271.719 186.188 270.312 185.438 268.688C184.688 267.062 184.312 265.375 184.312 263.625C184.312 261.125 185.031 258.906 186.469 256.969C187.906 254.969 189.812 253.406 192.188 252.281C194.625 251.094 197.344 250.5 200.344 250.5C202.781 250.5 205.438 250.906 208.312 251.719C211.188 252.531 213.656 252.938 215.719 252.938H221.156C221.531 253 221.719 253.781 221.719 255.281C221.719 256.156 221.531 256.594 221.156 256.594H214.5C214.25 256.594 214.125 256.688 214.125 256.875L215.062 259.125C215.75 260.688 216.094 262.188 216.094 263.625C216.094 265.875 215.406 268 214.031 270C212.656 272 210.781 273.625 208.406 274.875C206.094 276.125 203.469 276.75 200.531 276.75C199.531 276.75 198.594 276.719 197.719 276.656C196.844 276.594 196.031 276.5 195.281 276.375C194.094 277.25 193.125 278.156 192.375 279.094C191.688 280.031 191.344 280.969 191.344 281.906C191.344 283.469 192.219 284.469 193.969 284.906C195.719 285.344 197.969 285.562 200.719 285.562C204.594 285.625 207.875 285.875 210.562 286.312C213.312 286.688 215.469 287.219 217.031 287.906C220.156 289.406 221.719 291.625 221.719 294.562C221.719 297.75 220.781 300.688 218.906 303.375C217.094 306.062 214.531 308.188 211.219 309.75C207.969 311.375 204.219 312.219 199.969 312.281ZM200.438 273.562C202.875 273.562 204.875 272.625 206.438 270.75C208.062 268.875 208.875 266.625 208.875 264C208.875 261.125 207.969 258.688 206.156 256.688C204.406 254.688 202.344 253.688 199.969 253.688C197.531 253.688 195.5 254.625 193.875 256.5C192.312 258.375 191.531 260.625 191.531 263.25C191.531 266.125 192.406 268.562 194.156 270.562C195.969 272.562 198.062 273.562 200.438 273.562ZM202.688 308.812C205.188 308.812 207.406 308.344 209.344 307.406C211.281 306.469 212.781 305.25 213.844 303.75C214.969 302.25 215.531 300.656 215.531 298.969C215.531 296.344 214.25 294.594 211.688 293.719C209.188 292.781 204.219 292.312 196.781 292.312C196.281 292.312 195.406 292.594 194.156 293.156C192.969 293.719 191.844 294.531 190.781 295.594C189.781 296.719 189.281 298.125 189.281 299.812C189.281 301.562 189.938 303.125 191.25 304.5C192.562 305.875 194.219 306.938 196.219 307.688C198.281 308.438 200.438 308.812 202.688 308.812Z" fill="black"/>
<path d="M281.094 291.281C280.844 291.031 280.719 290.5 280.719 289.688C280.719 288.938 280.844 288.562 281.094 288.562C281.594 288.562 282.281 288.469 283.156 288.281C284.031 288.094 284.844 287.844 285.594 287.531C286.344 287.219 286.75 286.938 286.812 286.688C287.062 285.812 287.219 284.812 287.281 283.688C287.406 282.562 287.469 281.375 287.469 280.125V262.406C287.469 260.031 287.031 258.344 286.156 257.344C285.531 256.594 284.781 256.094 283.906 255.844C283.094 255.594 282.344 255.469 281.656 255.469C281.031 255.406 280.719 255.312 280.719 255.188C280.719 253.688 280.906 252.906 281.281 252.844C284.594 252.344 287.281 251.906 289.344 251.531C291.406 251.094 292.688 250.812 293.188 250.688L294.688 250.312C294.938 250.25 295.094 250.5 295.156 251.062C295.219 251.625 295.219 252.031 295.156 252.281C295.031 253.156 294.938 253.906 294.875 254.531C294.812 255.156 294.781 255.656 294.781 256.031C294.781 256.281 294.844 256.406 294.969 256.406C295.031 256.406 295.125 256.344 295.25 256.219C296.688 254.719 298.625 253.312 301.062 252C303.562 250.625 305.938 249.938 308.188 249.938C312.562 249.938 315.625 251.5 317.375 254.625C319.125 257.75 320 262.812 320 269.812V278.344C320 280.156 320.062 281.75 320.188 283.125C320.312 284.5 320.5 285.688 320.75 286.688C320.875 286.938 321.312 287.219 322.062 287.531C322.812 287.844 323.625 288.094 324.5 288.281C325.375 288.469 326 288.562 326.375 288.562C326.562 288.562 326.688 288.938 326.75 289.688C326.812 290.438 326.781 290.969 326.656 291.281L316.625 290.812L306.781 291.281C306.531 291.031 306.406 290.5 306.406 289.688C306.406 288.938 306.531 288.562 306.781 288.562C307.281 288.562 307.938 288.469 308.75 288.281C309.562 288.094 310.312 287.844 311 287.531C311.688 287.219 312.062 286.938 312.125 286.688C312.375 285.812 312.531 284.812 312.594 283.688C312.719 282.562 312.781 281.375 312.781 280.125V270.75C312.781 264.938 312.031 260.969 310.531 258.844C309.031 256.719 306.594 255.656 303.219 255.656C301.906 255.656 300.594 256.031 299.281 256.781C297.969 257.469 296.875 258.281 296 259.219C295.125 260.156 294.688 261.031 294.688 261.844V278.344C294.688 280.156 294.75 281.75 294.875 283.125C295 284.5 295.188 285.688 295.438 286.688C295.562 286.938 296 287.219 296.75 287.531C297.5 287.844 298.312 288.094 299.188 288.281C300.062 288.469 300.688 288.562 301.062 288.562C301.25 288.562 301.375 288.938 301.438 289.688C301.5 290.438 301.469 290.969 301.344 291.281L291.312 290.812L281.094 291.281Z" fill="black"/>
</svg>
